<?xml version="1.0" encoding="utf-8"?>
<!-- Generator: Adobe Illustrator 22.1.0, SVG Export Plug-In . SVG Version: 6.00 Build 0)  -->
<svg version="1.1" id="Warstwa_1" xmlns="http://www.w3.org/2000/svg" xmlns:xlink="http://www.w3.org/1999/xlink" x="0px" y="0px"
	 viewBox="0 0 1069 1280" style="enable-background:new 0 0 1069 1280;" xml:space="preserve">
<style type="text/css">
	.st0{fill:#FFFFFF;}
</style>
<g transform="translate(0.000000,1280.000000) scale(0.100000,-0.100000)">
	<path class="st0" d="M2784,10009L225,7450h1573h1572v-169v-170l43-6c23-3,917-4,1987-3l1945,3v173v172h1553c853,0,1552,3,1552,7
		c0,7-5032,5048-5081,5090l-25,22L2784,10009z"/>
	<path class="st0" d="M3370,6825v-255l1988,2l1987,3l3,190c2,105,0,218-3,253l-7,62H5354H3370V6825z"/>
	<path class="st0" d="M3370,6280v-230l1988,2l1987,3l3,175c2,96,0,199-3,228l-6,52H5354H3370V6280z"/>
	<path class="st0" d="M3370,5735v-215h1990h1990v169c0,92-3,189-6,215l-7,46H5354H3370V5735z"/>
	<path class="st0" d="M3370,5191v-200l53-6c28-3,923-5,1987-3l1935,3l3,140c2,77,0,168-3,203l-7,62H5354H3370V5191z"/>
	<path class="st0" d="M3372,4643l3-178h1985h1985l3,125c2,69,0,149-3,178l-6,52H5354H3370L3372,4643z"/>
	<path class="st0" d="M3370,4095v-165l1988,2l1987,3l3,100c2,55,0,128-3,163l-7,62H5354H3370V4095z"/>
	<path class="st0" d="M3370,3550v-150h1990h1990v104c0,57-3,124-6,150l-7,46H5354H3370V3550z"/>
	<path class="st0" d="M3377,3133c-4-3-7-62-7-130v-123h1990h1990v84c0,46-3,104-6,130l-7,46H5360C4273,3140,3380,3137,3377,3133z"/>
	<path class="st0" d="M3370,2461v-110l43-6c23-3,917-4,1987-3l1945,3l3,60c2,33,1,84-3,113l-6,52H5354H3370V2461z"/>
	<path class="st0" d="M3370,1910v-100l1988,2l1987,3l3,35c2,19,1,63-3,98l-7,62H5354H3370V1910z"/>
	<path class="st0" d="M3370,1370v-80h1985c1767,0,1986,2,1991,15c4,9,3,45-1,80l-7,65H5354H3370V1370z"/>
	<path class="st0" d="M3370,820v-60h1990h1990v23c0,12-3,39-6,60l-7,37H5354H3370V820z"/>
	<path class="st0" d="M3370,276v-43l46-7c69-9,3922-7,3928,2c2,4,2,27-1,50l-6,42H5354H3370V276z"/>
</g>
</svg>
